<svg width="17" height="21" viewBox="0 0 17 21" fill="none" xmlns="http://www.w3.org/2000/svg">
<path d="M8.50138 21C9.73404 21 10.7426 20.0308 10.7426 18.8462H6.26019C6.26019 19.4174 6.49631 19.9652 6.91662 20.3692C7.33692 20.7731 7.90698 21 8.50138 21ZM15.225 14.5385V9.15385C15.225 5.84769 13.3872 3.08 10.1823 2.34769V1.61538C10.1823 0.721539 9.43148 0 8.50138 0C7.57129 0 6.82049 0.721539 6.82049 1.61538V2.34769C3.60437 3.08 1.7778 5.83692 1.7778 9.15385V14.5385L0.332231 15.9277C-0.373744 16.6062 0.119318 17.7692 1.11665 17.7692H15.8749C16.8722 17.7692 17.3765 16.6062 16.6705 15.9277L15.225 14.5385Z" fill="#FF8D53"/>
</svg>
